<svg xmlns="http://www.w3.org/2000/svg" width="82" height="17" fill="none" viewBox="0 0 82 17">
  <path fill="#171100" d="M3.602.297V13.07h7.851V16H.343V.297h3.259Zm16.335 3.562c1.157 0 2.149.25 2.977.75a4.865 4.865 0 0 1 1.922 2.086c.453.875.68 1.89.68 3.047v1.266h-8.578c.156.797.546 1.437 1.171 1.922.625.484 1.391.726 2.297.726.86 0 1.64-.172 2.344-.515.703-.344 1.266-.696 1.688-1.055l-.024 2.766c-.375.328-.937.664-1.687 1.007-.735.329-1.547.493-2.438.493-1.172 0-2.242-.266-3.21-.797a6.275 6.275 0 0 1-2.298-2.18c-.562-.922-.844-1.977-.844-3.164 0-1.156.258-2.211.774-3.164a6.15 6.15 0 0 1 2.133-2.297c.906-.594 1.937-.89 3.093-.89Zm-.07 2.602c-.734 0-1.351.226-1.851.68-.5.453-.844 1.062-1.032 1.828h5.672c-.062-.844-.375-1.469-.937-1.875a3.018 3.018 0 0 0-1.852-.633Zm12.188-2.602c.734 0 1.414.11 2.039.329.625.218 1.11.468 1.453.75v2.625a8.652 8.652 0 0 0-1.383-.727 4.08 4.08 0 0 0-1.664-.352c-.563 0-1.008.125-1.336.375-.328.25-.492.547-.492.891 0 .25.094.484.281.703.188.203.547.383 1.078.54l1.336.444c1.797.532 2.696 1.57 2.696 3.118 0 .734-.211 1.39-.633 1.968-.407.563-.961 1.008-1.664 1.336-.688.329-1.453.493-2.297.493a7.29 7.29 0 0 1-2.32-.375c-.75-.25-1.32-.524-1.712-.82v-2.602a6.83 6.83 0 0 0 1.079.586c.422.187.859.343 1.312.468.453.11.867.164 1.242.164.594 0 1.047-.101 1.36-.304a1.04 1.04 0 0 0 .492-.914c0-.297-.133-.532-.399-.703-.265-.172-.656-.344-1.171-.516l-1.454-.516c-.906-.297-1.53-.718-1.875-1.265-.343-.547-.515-1.196-.515-1.946s.187-1.398.562-1.945c.39-.562.93-1 1.617-1.312.688-.329 1.477-.493 2.368-.493Zm10.36 0c.733 0 1.413.11 2.038.329.625.218 1.11.468 1.453.75v2.625a8.648 8.648 0 0 0-1.383-.727 4.079 4.079 0 0 0-1.664-.352c-.562 0-1.007.125-1.336.375-.328.25-.492.547-.492.891 0 .25.094.484.282.703.187.203.546.383 1.078.54l1.336.444c1.796.532 2.695 1.57 2.695 3.118 0 .734-.211 1.39-.633 1.968-.406.563-.96 1.008-1.664 1.336-.688.329-1.453.493-2.297.493a7.29 7.29 0 0 1-2.32-.375c-.75-.25-1.32-.524-1.711-.82v-2.602c.297.203.656.398 1.078.586.422.187.86.343 1.313.468.453.11.867.164 1.242.164.593 0 1.047-.101 1.36-.304a1.04 1.04 0 0 0 .491-.914c0-.297-.133-.532-.398-.703-.266-.172-.656-.344-1.172-.516l-1.453-.516c-.906-.297-1.531-.718-1.875-1.265-.344-.547-.516-1.196-.516-1.946s.188-1.398.563-1.945c.39-.562.93-1 1.617-1.312.687-.329 1.476-.493 2.367-.493Zm12.046 0c1.156 0 2.21.282 3.164.844a6.34 6.34 0 0 1 2.297 2.25c.594.938.89 1.992.89 3.164 0 1.172-.296 2.227-.89 3.164a6.596 6.596 0 0 1-2.297 2.25c-.953.547-2.008.82-3.164.82a6.327 6.327 0 0 1-3.164-.82A6.596 6.596 0 0 1 49 13.281c-.578-.937-.867-1.992-.867-3.164 0-1.172.289-2.226.867-3.164a6.34 6.34 0 0 1 2.297-2.25 6.19 6.19 0 0 1 3.164-.844Zm0 2.883c-.563 0-1.086.133-1.57.399a3.06 3.06 0 0 0-1.172 1.148c-.282.5-.422 1.11-.422 1.828 0 .719.14 1.328.422 1.828.297.5.687.883 1.172 1.149a3.37 3.37 0 0 0 1.57.375c.562 0 1.086-.125 1.57-.375a3.061 3.061 0 0 0 1.172-1.149c.297-.5.445-1.11.445-1.828 0-.719-.148-1.328-.445-1.828a3.06 3.06 0 0 0-1.172-1.148 3.214 3.214 0 0 0-1.57-.399ZM66.6 4.164v1.688c.36-.485.844-.938 1.454-1.36.625-.422 1.336-.633 2.132-.633 1.204 0 2.211.407 3.024 1.22.812.812 1.219 2.03 1.219 3.655V16h-2.977l-.023-6.867c0-.797-.196-1.39-.586-1.781-.375-.391-.899-.586-1.57-.586-.532 0-1.032.171-1.5.515-.454.344-.844.75-1.172 1.219V16h-2.977V4.164h2.977Z"/>
  <path fill="#FFB900" d="M79.258 12.672c.515 0 .953.187 1.312.562.375.36.563.797.563 1.313 0 .515-.188.96-.563 1.336-.36.36-.797.539-1.312.539-.516 0-.961-.18-1.336-.54a1.86 1.86 0 0 1-.54-1.335c0-.516.18-.953.54-1.313.375-.375.82-.562 1.336-.562Z"/>
</svg>
