<svg xmlns="http://www.w3.org/2000/svg" width="15" height="15" fill="none" viewBox="0 0 15 15">
  <path fill="#fff" d="M12.75 3.375a1.125 1.125 0 1 1-2.25 0 1.125 1.125 0 0 1 2.25 0Z"/>
  <path fill="#fff" fill-rule="evenodd" d="M7.5 11.25a3.75 3.75 0 1 0 0-7.5 3.75 3.75 0 0 0 0 7.5Zm0-1.5a2.25 2.25 0 1 0 0-4.5 2.25 2.25 0 0 0 0 4.5Z" clip-rule="evenodd"/>
  <path fill="#fff" fill-rule="evenodd" d="M0 7.2c0-2.52 0-3.78.49-4.743A4.5 4.5 0 0 1 2.457.49C3.42 0 4.68 0 7.2 0h.6c2.52 0 3.78 0 4.743.49a4.5 4.5 0 0 1 1.966 1.967C15 3.42 15 4.68 15 7.2v.6c0 2.52 0 3.78-.49 4.743a4.5 4.5 0 0 1-1.967 1.966C11.58 15 10.32 15 7.8 15h-.6c-2.52 0-3.78 0-4.743-.49A4.5 4.5 0 0 1 .49 12.542C0 11.58 0 10.32 0 7.8v-.6Zm7.2-5.7h.6c1.285 0 2.158.001 2.833.056.658.054.994.151 1.229.271a3 3 0 0 1 1.311 1.311c.12.235.217.57.27 1.229.056.675.057 1.548.057 2.833v.6c0 1.285-.001 2.158-.056 2.833-.054.658-.151.994-.271 1.229a3 3 0 0 1-1.311 1.311c-.235.12-.57.217-1.229.27-.675.056-1.548.057-2.833.057h-.6c-1.285 0-2.158-.001-2.833-.056-.658-.054-.994-.151-1.229-.271a3 3 0 0 1-1.311-1.311c-.12-.235-.217-.57-.27-1.229C1.5 9.958 1.5 9.085 1.5 7.8v-.6c0-1.285.001-2.158.056-2.833.054-.658.151-.994.271-1.229a3 3 0 0 1 1.311-1.311c.235-.12.57-.217 1.229-.27C5.042 1.5 5.915 1.5 7.2 1.5Z" clip-rule="evenodd"/>
</svg>
