<svg xmlns="http://www.w3.org/2000/svg" width="24" height="24" fill="none" viewBox="0 0 24 24">
  <path fill="#A13FB9" d="M.75 8.25V21h22.5V8.25H.75Zm9.579 8.507a.75.75 0 1 1-1.13.986l-3.056-3.498L9.2 10.757a.749.749 0 0 1 1.324.44.751.751 0 0 1-.196.548l-2.193 2.501 2.194 2.51Zm4.5.986a.75.75 0 1 1-1.13-.986l2.194-2.51-2.193-2.503a.752.752 0 0 1 .058-1.072.75.75 0 0 1 1.07.084l3.057 3.487-3.056 3.5ZM.75 3v3.75h22.5V3H.75ZM3 5.625a.75.75 0 1 1 0-1.5.75.75 0 0 1 0 1.5Zm2.25 0a.75.75 0 1 1 0-1.5.75.75 0 0 1 0 1.5Zm2.25 0a.75.75 0 1 1 0-1.5.75.75 0 0 1 0 1.5Z"/>
</svg>
