<svg xmlns="http://www.w3.org/2000/svg" width="30" height="28" fill="none" viewBox="0 0 30 28">
  <path fill="#634700" d="M12.917 1.235v5.027c0 .682-.55 1.235-1.23 1.235-2.422 0-3.74 2.494-3.922 7.418h3.923c.678 0 1.229.554 1.229 1.235v10.615c0 .681-.55 1.234-1.23 1.234H1.23c-.679 0-1.23-.553-1.23-1.234V16.15c0-2.36.237-4.526.703-6.44.479-1.96 1.213-3.675 2.183-5.096.997-1.46 2.246-2.606 3.709-3.403C8.069.408 9.782 0 11.688 0c.678 0 1.229.553 1.229 1.235ZM28.77 7.497c.679 0 1.229-.553 1.229-1.234V1.235c0-.682-.55-1.234-1.229-1.234-1.905 0-3.62.408-5.093 1.21-1.463.798-2.712 1.943-3.709 3.404-.97 1.42-1.704 3.136-2.183 5.098-.466 1.913-.703 4.079-.703 6.438v10.615c0 .682.551 1.234 1.23 1.234H28.77c.68 0 1.23-.553 1.23-1.234V16.15c0-.682-.55-1.235-1.229-1.235h-3.867c.18-4.924 1.479-7.419 3.867-7.419Z"/>
</svg>
