<svg xmlns="http://www.w3.org/2000/svg" width="18" height="15" fill="none" viewBox="0 0 18 15">
  <path fill="#fff" d="M5.65 15c-2.08 0-4.018-.614-5.65-1.672 1.385.09 3.83-.127 5.35-1.599-2.287-.106-3.318-1.886-3.453-2.647.194.076 1.121.167 1.645-.045C.91 8.367.507 6.024.596 5.309c.494.35 1.33.472 1.66.442C-.196 3.97.686 1.293 1.12.715c1.76 2.473 4.396 3.862 7.66 3.94a3.88 3.88 0 0 1-.095-.852C8.685 1.703 10.36 0 12.423 0c1.079 0 2.05.465 2.733 1.208.72-.171 1.805-.572 2.336-.919-.268.974-1.1 1.786-1.603 2.087-.004-.01.004.01 0 0 .442-.068 1.638-.301 2.111-.627-.234.547-1.116 1.457-1.84 1.966C16.295 9.742 11.75 15 5.65 15Z"/>
</svg>
